# xmcd
#
# Track frame offsets: 
#        150
#        3497
#        22586
#        31565
#        43322
#        56508
#        58070
#        71350
#        82258
#        97360
#        110449
#        125537
#
# Disc length: 1841 seconds
#
# Revision: 3
# Processed by: cddbd v1.5.2PL0 Copyright (c) Steve Scherf et al.
# Submitted via: ExactAudioCopyFreeDBPlugin 1.0
#
DISCID=9c072f0c
DTITLE=Various Artist - Back to Back
DYEAR=1967
DGENRE=Soul
TTITLE0=Booker T. and the M.G.'s - Introduction of Booker T. and the M.G.'
TTITLE0=s
TTITLE1=Booker T. and the M.G.'s - Green Onions
TTITLE2=Booker T. and the M.G.'s - Red Beans and Rice
TTITLE3=Booker T. and the M.G.'s - Tic-Tac-Toe
TTITLE4=Booker T. and The MG's - Hip Hug-Her
TTITLE5=The Mar-Keys - Introduction of The Mar-Keys
TTITLE6=The Mar-Keys - Philly Dog
TTITLE7=The Mar-Keys - Grab This Thing
TTITLE8=The Mar-Keys - Last Night
TTITLE9=Booker T. and the M.G.'s - Gimme Some Lovin'
TTITLE10=Booker T. and the M.G.'s - Booker-Loo
TTITLE11=Booker T. and the M.G.'s - Outrage
EXTD=
EXTT0=
EXTT1=
EXTT2=
EXTT3=
EXTT4=
EXTT5=
EXTT6=
EXTT7=
EXTT8=
EXTT9=
EXTT10=
EXTT11=
PLAYORDER=
